<svg width="114" height="27" viewBox="0 0 114 27" fill="none" xmlns="http://www.w3.org/2000/svg">
<path d="M9.82888 5.44019L0 26.2427H2.32424L5.56199 19.3972H14.5236L17.796 26.2427H20.0393L10.3377 5.44019H9.82888ZM6.51019 17.3967L10.0717 9.86896L13.6217 17.3967H6.51019Z" fill="#CEA776"/>
<path d="M49.3296 15.9167C50.324 15.4773 51.0757 14.8297 51.6076 13.974C52.1395 13.1183 52.4054 12.1239 52.4054 10.9907C52.4054 9.6262 52.0239 8.48142 51.2491 7.55635C50.4744 6.63128 49.4683 6.01842 48.2426 5.7409C47.4216 5.55588 45.8606 5.46338 43.5479 5.46338H39.4082V26.2659H41.4896V16.6105H42.6691L50.1506 26.2659H52.7177L45.2246 16.5874C46.9707 16.5758 48.3351 16.3561 49.3296 15.9167ZM41.478 14.5522V7.48697H45.1436C46.5659 7.48697 47.5835 7.61417 48.2079 7.857C48.8208 8.09983 49.318 8.50455 49.6996 9.08272C50.0812 9.64932 50.2662 10.2853 50.2662 10.9791C50.2662 11.696 50.0812 12.3436 49.7112 12.9218C49.3411 13.4999 48.8208 13.9278 48.1501 14.1822C47.4794 14.4481 46.4619 14.5753 45.0743 14.5753L41.478 14.5522Z" fill="#CEA776"/>
<path d="M70.8369 7.47534H75.4738V26.2427H77.5899V7.47534H82.2268V5.44019H70.8369V7.47534Z" fill="#CEA776"/>
<path d="M101.272 26.2427H113.113V24.2076H103.354V16.0322H113.113V13.9971H103.354V7.47534H113.194V5.44019H101.272V26.2427Z" fill="#CEA776"/>
<path d="M109.958 0.27931L106.892 3.92529L107.52 4.45377L110.587 0.807786L109.958 0.27931Z" fill="#CEA776"/>
</svg>
