<svg width="18" height="16" viewBox="0 0 18 16" fill="none" xmlns="http://www.w3.org/2000/svg">
<path d="M16.5744 0.82877L1.20368 6.99366C1.20368 6.99366 0.479743 7.24502 0.531452 7.72128C0.583162 8.19753 1.17782 8.4092 1.17782 8.4092L4.6036 9.58662C4.888 9.67922 5.18533 9.63953 5.44388 9.48078L14.338 3.69954C14.338 3.69954 14.868 3.36881 14.8551 3.69954C14.8551 3.69954 14.9455 3.75246 14.6611 4.03028C14.4543 4.22872 10.8476 7.54929 8.77916 9.45432L7.74496 10.4068C7.5252 10.6185 7.5252 10.9757 7.77082 11.1741L9.77457 12.7749L13.6657 15.8309C14.7129 16.3071 15.1007 15.3282 15.1007 15.3282L17.8284 1.19919C17.8284 0.259907 16.5744 0.82877 16.5744 0.82877Z" fill="#EDEDED"/>
</svg>
