<svg width="19" height="18" viewBox="0 0 19 18" fill="none" xmlns="http://www.w3.org/2000/svg">
<path d="M1.0116 17.3062C1.36389 16.2713 2.08981 14.1376 2.37804 13.2627C2.39939 13.2094 2.37804 13.124 2.34601 13.06C1.8763 12.2492 1.53469 11.3957 1.35321 10.4782C0.86215 8.01367 1.31051 5.73054 2.77302 3.68213C4.08608 1.83642 5.86885 0.684191 8.06795 0.204094C11.4093 -0.532055 14.9001 0.758872 16.9498 3.50076C17.9639 4.8557 18.5724 6.37067 18.6578 8.05635C18.8393 11.481 17.4729 14.1589 14.6119 16.0366C12.9145 17.1568 11.0143 17.5516 8.98603 17.3382C7.88647 17.2209 6.85097 16.9115 5.86885 16.3994C5.75142 16.3354 5.64467 16.3247 5.51657 16.3674C4.42769 16.7194 2.48479 17.3382 1.48132 17.6476C1.09701 17.7543 0.926202 17.5623 1.0116 17.3062ZM3.09328 15.5352C3.07193 15.5992 3.12531 15.6525 3.18936 15.6419C3.64839 15.5032 5.01483 15.0658 5.71939 14.8417C5.82615 14.8097 5.91155 14.8204 6.00763 14.8737C7.68364 15.8979 9.49844 16.25 11.4307 15.8446C13.5017 15.4072 15.103 14.2763 16.2239 12.4839C17.1526 10.9903 17.4729 9.36861 17.2273 7.64026C16.9604 5.78389 16.0637 4.26891 14.6226 3.07401C13.5444 2.18849 12.306 1.64438 10.9182 1.46301C9.24223 1.24964 7.67297 1.55903 6.21046 2.41254C4.86537 3.18069 3.87257 4.26891 3.22138 5.65586C2.59154 7.0108 2.41006 8.42976 2.65559 9.89138C2.8264 10.9583 3.23206 11.9398 3.8619 12.8253C3.92595 12.9107 3.9473 13.028 3.9046 13.1347C3.74447 13.5935 3.58434 14.0629 3.42421 14.5323C3.31746 14.8524 3.20003 15.1831 3.09328 15.5352Z" fill="#EDEDED"/>
<path d="M7.23574 4.64143C7.63073 4.60943 7.79086 4.88682 7.91896 5.22822C8.10044 5.68698 8.28192 6.14574 8.49543 6.58316C8.62353 6.84988 8.57015 7.07393 8.41002 7.2873C8.27125 7.458 8.13247 7.62871 7.99369 7.78874C7.84423 7.95944 7.82288 8.04479 7.94031 8.23683C8.52745 9.21836 9.30675 10.0079 10.3529 10.5093C10.5344 10.5946 10.7159 10.68 10.8974 10.7547C11.1002 10.84 11.1963 10.808 11.335 10.648C11.5379 10.4026 11.7407 10.1572 11.9435 9.90117C12.125 9.66645 12.2318 9.63444 12.4987 9.7518C13.0644 10.0185 13.6302 10.2852 14.1853 10.552C14.3241 10.616 14.3775 10.7227 14.3775 10.8827C14.3348 11.7682 14.0786 12.2056 13.0965 12.6217C12.6481 12.8031 12.1784 12.8351 11.7087 12.6964C11.0255 12.5044 10.3636 12.2803 9.72308 11.9709C8.99716 11.6082 8.378 11.1174 7.82288 10.552C7.07562 9.78381 6.40307 8.95164 5.94404 7.98078C5.62378 7.30864 5.53838 6.6045 5.80526 5.87902C5.95471 5.48427 6.20024 5.16421 6.50983 4.89749C6.71266 4.71612 6.95819 4.67344 7.23574 4.64143Z" fill="#EDEDED"/>
</svg>
