<svg width="111" height="111" viewBox="0 0 111 111" fill="none" xmlns="http://www.w3.org/2000/svg">
<path d="M17.3137 73.7844C17.3597 72.96 17.4 72.4297 17.4359 72.2868C17.5457 71.8506 15.8281 71.1912 13.5163 70.5173M17.3137 73.7844C29.4964 77.6783 45.175 84.8669 50.3007 84.5674C52.7603 84.4236 57.0943 82.8316 61.6038 81.2143M17.3137 73.7844C17.0589 78.3441 16.6119 91.3001 15.7418 98.046M98.8441 92.355C94.6229 92.355 84.07 90.8574 80.7534 88.4612C77.4367 86.065 79.4264 85.1946 82.5624 85.4659C86.0263 85.7657 90.2475 85.1666 92.6595 83.07C95.0716 80.9733 89.9459 79.7752 86.9308 79.4757C84.8094 79.2649 80.7534 77.6783 74.7231 77.6783C71.5865 77.6783 66.4921 79.4611 61.6038 81.2143M98.8441 92.355L110 90.5579M98.8441 92.355C100.904 92.355 101.201 93.6633 100.197 95.051M96.7335 98.046C96.7335 98.046 92.0565 98.046 89.6444 97.5429M96.7335 98.046C96.7335 102.539 92.1311 102.539 92.1311 102.539M96.7335 98.046C96.7335 98.046 98.8441 97.4472 100.197 95.051M92.1311 102.539C92.1311 102.539 88.7177 102.882 86.9308 102.539M92.1311 102.539C91.9301 103.737 91.5741 105.474 89.6444 106.433C87.7148 107.391 85.0212 107.132 84.2172 107.032C87.6881 107.931 85.3334 110 81.8566 110C77.3893 110 72.0287 110.027 64.4344 107.032C60.8367 105.613 58.5999 104.378 55.4904 102.539M51.2052 100.442C48.5052 99.5481 29.2291 98.2868 18.0389 98.046M51.2052 100.442L19.848 106.433M51.2052 100.442C52.4306 100.848 53.898 101.597 55.4904 102.539M15.7418 98.046C16.4547 98.0594 17.233 98.0287 18.0389 98.046M15.7418 98.046C15.4896 99.6293 14.7263 102.431 14.4016 102.539C12.5926 103.138 2.05882 103.138 1.15428 101.341C0.24975 99.5436 3.56638 68.393 4.77242 68.393C6.33203 68.7173 8.44661 69.1898 10.5012 69.7063M15.7418 98.046L18.0389 109.428M18.0389 98.046L19.848 106.433M19.848 106.433L18.0389 109.428M110 90.5579L103.065 49.5229M110 90.5579L109.095 93.2538L100.197 95.051M103.065 49.5229C105.779 48.9238 107.588 47.4262 107.286 45.9286C106.985 44.431 106.382 42.3343 103.065 42.9333M103.065 49.5229C100.05 50.1215 98.8441 49.2236 98.241 47.726C97.638 46.2283 99.7486 43.5324 103.065 42.9333M103.065 42.9333C106.683 42.0352 107.286 40.8371 107.286 39.0399C107.286 37.2427 105.477 35.4456 101.256 36.3442M103.065 42.9333C97.638 44.1313 95.2259 43.832 94.6229 41.1363C94.0199 38.4405 97.035 37.2428 101.256 36.3442M101.256 36.3442C103.97 35.4453 106.382 35.7448 106.08 32.45C105.779 29.1552 103.367 29.4548 99.4471 30.0538M101.256 36.3442C96.432 36.9434 94.1159 37.3724 93.2626 34.5468C92.358 31.5516 95.5274 30.6529 99.4471 30.0538M99.4471 30.0538C101.859 29.7323 104.271 28.5563 103.668 26.4597C103.065 24.363 101.859 23.4644 98.241 23.7639M99.4471 30.0538C95.8289 30.4306 94.6229 29.1554 94.0199 27.3582C93.4169 25.5611 94.6229 24.0635 98.241 23.7639M98.241 23.7639L94.0199 1L48.9439 8.93742M4.01512 16.8748L13.5163 70.5173M4.01512 16.8748L2.50756 21.9668L10.5012 69.7063M4.01512 16.8748L48.9439 8.93742M13.5163 70.5173C12.5812 70.2447 11.549 69.9698 10.5012 69.7063M18.0389 109.428L55.4904 102.539M48.9439 8.93742L61.6038 81.2143M21.5028 66.2965L45.3222 61.8037M24.2164 61.2046L23.0104 53.2672L21.8043 45.3298M21.8043 45.3298L17.4359 51.6198M21.8043 45.3298L27.533 49.5229M38.689 58.8082L37.4829 50.8708L36.2769 43.2331M36.2769 43.2331L32.3572 48.9241M36.2769 43.2331L42.0056 47.1265" stroke="#EDEDED" stroke-linecap="round" stroke-linejoin="round"/>
</svg>
