<svg width="165" height="87" viewBox="0 0 165 87" fill="none" xmlns="http://www.w3.org/2000/svg">
<circle cx="57.4349" cy="73.7344" r="12.2651" stroke="#EDEDED"/>
<circle cx="57.4358" cy="73.735" r="7.70135" stroke="#EDEDED"/>
<circle cx="138.443" cy="73.7344" r="12.2651" stroke="#EDEDED"/>
<circle cx="138.441" cy="73.735" r="7.70135" stroke="#EDEDED"/>
<path d="M69.9854 73.7344H126.177" stroke="#EDEDED"/>
<path d="M0 18.2595L16.7642 18.2595" stroke="#EDEDED"/>
<path d="M7.94128 31.4934L24.7055 31.4934" stroke="#EDEDED"/>
<path d="M0 44.729L16.7642 44.729" stroke="#EDEDED"/>
<path d="M67.1328 66.0336C67.8047 66.0336 89.9516 66.0336 109.633 66.0336M128.744 66.0336C123.425 66.0336 116.687 66.0336 109.633 66.0336M151.562 73.735C154.985 73.735 162.002 73.735 162.687 73.735C163.542 73.735 164.113 73.735 164.113 72.594C164.113 71.4531 164.113 68.6007 164.113 67.745C164.113 66.8893 164.113 66.0336 162.687 66.0336C162.414 66.0336 161.692 66.0336 160.69 66.0336M148.14 66.0336C151.469 66.0336 157.497 66.0336 160.69 66.0336M44.314 73.735C40.8912 73.735 33.8744 73.735 33.1898 73.735C32.3341 73.735 31.7637 73.735 31.7637 72.594C31.7637 71.4531 31.7637 68.6007 31.7637 67.745C31.7637 66.8893 31.7637 66.0336 33.1898 66.0336C33.4623 66.0336 34.1848 66.0336 35.1865 66.0336M47.7368 66.0336C44.4077 66.0336 38.3792 66.0336 35.1865 66.0336M35.1865 66.0336V53.198M109.633 66.0336V53.198M109.633 14.1208V1H35.1865V53.198M109.633 14.1208C118.76 14.1208 137.472 14.1208 139.297 14.1208C141.579 14.1208 143.861 14.9765 145.287 17.5436C146.713 20.1108 159.264 44.9262 159.834 46.9229C160.405 48.9195 160.69 48.349 160.69 52.0571C160.69 52.6543 160.69 53.4388 160.69 54.339M109.633 14.1208V53.198M160.69 66.0336C160.69 64.7522 160.69 62.8872 160.69 60.8994M160.69 54.339C159.169 54.339 155.67 54.339 153.844 54.339C151.562 54.339 151.562 54.339 151.562 55.7652C151.562 57.1913 151.562 59.188 151.562 60.0437C151.562 60.8994 152.133 60.8994 153.844 60.8994C155.213 60.8994 158.979 60.8994 160.69 60.8994M160.69 54.339C160.69 56.236 160.69 58.6465 160.69 60.8994M119.616 51.2014H125.891M35.1865 53.198C39.0657 54.1108 86.4337 53.5784 109.633 53.198M63.1395 9.27182H77.1161V14.6913M63.1395 9.27182H49.163V42.9296H63.1395M63.1395 9.27182V42.9296M63.1395 42.9296H77.1161V41.6405M77.1161 23.2483V41.6405M77.1161 23.2483V14.6913M77.1161 23.2483H89.6664M77.1161 41.6405H96.2268V23.2483H89.6664M77.1161 14.6913H89.6664V23.2483M125.891 19.2551V42.9296H151.562C148.805 36.179 142.891 22.3356 141.294 20.9665C139.297 19.2551 139.297 19.2551 137.586 19.2551C136.217 19.2551 129.219 19.2551 125.891 19.2551ZM114.197 19.2551C114.653 19.2551 119.141 19.2551 121.328 19.2551V42.9296C119.114 42.9296 116.467 42.9296 114.197 42.9296C114.197 42.0816 114.197 26.8613 114.197 19.2551Z" stroke="#EDEDED"/>
</svg>
