<svg width="23" height="24" viewBox="0 0 23 24" fill="none" xmlns="http://www.w3.org/2000/svg">
<path d="M18.3483 23.0014H4.59137C2.05584 23.0014 0 20.9305 0 18.3936V5.39851C0 2.84437 2.05584 0.773438 4.59137 0.773438H18.3483C20.8839 0.773438 22.9397 2.84437 22.9397 5.39851V18.3936C22.9226 20.9305 20.8667 23.0014 18.3483 23.0014ZM4.59137 2.41292C2.96383 2.41292 1.64467 3.74177 1.64467 5.38125V18.3763C1.64467 20.0158 2.96383 21.3447 4.59137 21.3447H18.3483C19.9759 21.3447 21.295 20.0158 21.295 18.3763V5.39851C21.295 3.75903 19.9759 2.43018 18.3483 2.43018H4.59137V2.41292Z" fill="#CEA776"/>
<path d="M11.4614 18.0663C8.06924 18.0663 5.32812 15.2878 5.32812 11.888C5.32812 8.47095 8.08637 5.70972 11.4614 5.70972C14.8535 5.70972 17.5946 8.48821 17.5946 11.888C17.5946 15.305 14.8535 18.0663 11.4614 18.0663ZM11.4614 7.3492C8.97724 7.3492 6.95566 9.38561 6.95566 11.888C6.95566 14.3904 8.97724 16.4268 11.4614 16.4268C13.9455 16.4268 15.9671 14.3904 15.9671 11.888C15.9671 9.38561 13.9455 7.3492 11.4614 7.3492Z" fill="#CEA776"/>
<path d="M18.4009 6.43353C19.1089 6.13807 19.4452 5.32034 19.1519 4.60706C18.8586 3.89379 18.0468 3.55508 17.3387 3.85053C16.6307 4.14598 16.2944 4.96372 16.5877 5.677C16.881 6.39027 17.6928 6.72898 18.4009 6.43353Z" fill="#CEA776"/>
</svg>
