<svg width="18" height="19" viewBox="0 0 18 19" fill="none" xmlns="http://www.w3.org/2000/svg">
<path d="M13.2668 6.08087L13.3084 6.53529H13.7647H16.8235C17.1395 6.53529 17.4113 6.7714 17.5 7.00545V17.9941C17.5 18.2529 17.2777 18.5 16.9412 18.5H1.05882C0.722254 18.5 0.5 18.2529 0.5 17.9941V6.92941C0.5 6.81817 0.683019 6.53529 1.05882 6.53529H4.11765H4.57397L4.61557 6.08087C4.84335 3.59237 5.60345 2.21538 6.42683 1.45761C7.25092 0.699185 8.20476 0.5 8.94118 0.5C9.67759 0.5 10.6314 0.699185 11.4555 1.45761C12.2789 2.21538 13.039 3.59237 13.2668 6.08087ZM12.4706 6.53529H13.0207L12.9683 5.98766C12.8482 4.73244 12.5741 3.44105 11.9712 2.45037C11.349 1.4279 10.374 0.729412 8.94118 0.729412C7.5084 0.729412 6.53334 1.4279 5.91111 2.45037C5.30822 3.44105 5.03416 4.73244 4.91404 5.98766L4.86163 6.53529H5.41176H12.4706Z" fill="#CEA776" stroke="#CEA776"/>
</svg>
