<svg width="173" height="167" viewBox="0 0 173 167" fill="none" xmlns="http://www.w3.org/2000/svg">
<path d="M62.2034 116.516L45.8429 126.732" stroke="#EDEDED"/>
<path d="M46.3829 108.599L30.0225 118.815" stroke="#EDEDED"/>
<path d="M46.2129 90.9062L29.8524 101.122" stroke="#EDEDED"/>
<path d="M65.8719 55.8906L49.5115 66.1068" stroke="#EDEDED"/>
<path d="M50.0508 47.9707L33.6903 58.1869" stroke="#EDEDED"/>
<path d="M101.85 113.506L85.4893 123.723" stroke="#EDEDED"/>
<path d="M102.023 131.201L85.663 141.417" stroke="#EDEDED"/>
<path d="M113.34 59.8666C135.314 46.7651 139.258 45.1651 141.479 48.7217C144.811 54.0567 138.141 59.2102 120.225 70.8921M113.34 59.8666C103.974 65.4512 76.3518 82.9638 66.7038 90.4714M113.34 59.8666C101.402 51.8318 70.8071 32.4434 67.7494 31.9799C63.9272 31.4006 57.5703 33.8871 57.881 35.1761C58.1294 36.2074 81.0275 62.4797 90.9641 73.9064M120.225 70.8921C102.309 82.5741 83.8143 94.1229 72.2561 99.363M120.225 70.8921C122.205 85.1455 125.308 119.722 124.382 122.673C123.225 126.362 118.201 130.982 117.179 130.138C116.362 129.462 103.838 99.0083 97.9318 85.0647M72.2561 99.363C60.6979 104.603 56.1641 104.467 55.2757 103.045C53.4987 100.199 57.0559 97.9791 66.7038 90.4714M72.2561 99.363C73.41 103.586 77.1824 117.544 75.9819 118.788C74.7813 120.032 71.6238 124.475 70.6019 123.63C69.7843 122.954 65.2335 108.7 63.2652 103.173M66.7038 90.4714C63.4159 87.5811 51.8637 76.9977 50.219 77.5304C48.5742 78.0631 43.1958 78.9499 43.5064 80.2389C43.7549 81.2702 55.3262 92.8341 59.4284 97.0285" stroke="#EDEDED"/>
</svg>
