<svg width="130" height="129" viewBox="0 0 130 129" fill="none" xmlns="http://www.w3.org/2000/svg">
<path d="M41.7273 30.7532L9.31169 40.7273M9.31169 40.7273L64.1688 59.013M9.31169 40.7273L1 61.5065L7.92858 64.0647M64.1688 59.013L114.039 40.7273M64.1688 59.013L74.974 79.7922L115.865 64.0647M64.1688 59.013L55.026 81.4545L7.92858 64.0647M64.1688 59.013V128M114.039 40.7273L86.6104 30.7532M114.039 40.7273L129 59.013L115.865 64.0647M64.1688 128L7.92858 108.883V64.0647M64.1688 128L115.865 108.883V64.0647M64.1688 0V46.5455M64.1688 46.5455L74.974 30.7532M64.1688 46.5455L51.7013 30.7532" stroke="#CEA776" stroke-width="2" stroke-linejoin="round"/>
</svg>
