<svg width="20" height="13" viewBox="0 0 20 13" fill="none" xmlns="http://www.w3.org/2000/svg">
<path fill-rule="evenodd" clip-rule="evenodd" d="M15.9773 6.19252C15.9773 6.19252 18.4261 2.38872 18.6765 1.13606C18.76 0.693047 18.5792 0.43335 18.1617 0.43335C18.1617 0.43335 16.7426 0.43335 16.033 0.43335C15.546 0.43335 15.3651 0.662495 15.226 0.998573C15.226 0.998573 14.0712 3.6872 12.6798 5.38287C12.2346 5.93282 11.998 6.10086 11.7476 6.10086C11.5528 6.10086 11.4554 5.91754 11.4554 5.4287V1.10551C11.4554 0.494455 11.3858 0.326416 10.9406 0.326416H7.50394C7.23958 0.326416 7.08653 0.494455 7.08653 0.7236C7.08653 1.28882 7.8796 1.42631 7.8796 2.96922V6.16196C7.8796 6.80357 7.85178 7.04799 7.5735 7.04799C6.83608 7.04799 5.1108 4.28298 4.12293 1.15134C3.92814 0.509732 3.71944 0.326416 3.17681 0.326416H1.04803C0.728019 0.326416 0.505402 0.555561 0.505402 0.891639C0.505402 1.51797 1.17325 4.40519 3.78901 8.28537C5.54212 10.8976 7.85178 12.303 9.9249 12.303C11.191 12.303 11.4971 12.0739 11.4971 11.4781V9.47692C11.4971 8.9728 11.678 8.75893 11.9424 8.75893C12.2346 8.75893 12.7494 8.86587 13.9598 10.1644C15.3929 11.6614 15.4903 12.2878 16.2695 12.2878H18.6626C18.9131 12.2878 19.1357 12.1655 19.1357 11.7225C19.1357 11.1268 18.44 10.088 17.3687 8.83532C16.9234 8.19371 16.2138 7.491 15.9912 7.1702C15.6434 6.80357 15.7408 6.5897 15.9773 6.19252Z" fill="#EDEDED"/>
</svg>
